HIERARCHY
ROOT root
{
	OFFSET 0.000000 0.000000 0.000000
	CHANNELS 6 Xposition Yposition Zposition Zrotation Yrotation Xrotation
	JOINT lhip
	{
		OFFSET 0.058581 -0.082280 -0.017664
		CHANNELS 3 Zrotation Yrotation Xrotation
		JOINT lknee
		{
			OFFSET 0.043451 -0.386469 0.008037
			CHANNELS 3 Zrotation Yrotation Xrotation
			JOINT lankle
			{
				OFFSET -0.014790 -0.426874 -0.037428
				CHANNELS 3 Zrotation Yrotation Xrotation
				JOINT ltoe
				{
					OFFSET 0.041054 -0.060286 0.122042
					CHANNELS 3 Zrotation Yrotation Xrotation
					End Site
					{
						OFFSET 0.000000 0.000000 0.000000
					}
				}
			}
		}
	}
	JOINT rhip
	{
		OFFSET -0.060310 -0.090513 -0.013543
		CHANNELS 3 Zrotation Yrotation Xrotation
		JOINT rknee
		{
			OFFSET -0.043257 -0.383688 -0.004843
			CHANNELS 3 Zrotation Yrotation Xrotation
			JOINT rankle
			{
				OFFSET 0.019056 -0.420046 -0.034562
				CHANNELS 3 Zrotation Yrotation Xrotation
				JOINT rtoe
				{
					OFFSET -0.034840 -0.062106 0.130323
					CHANNELS 3 Zrotation Yrotation Xrotation
					End Site
					{
						OFFSET 0.000000 0.000000 0.000000
					}
				}
			}
		}
	}
	JOINT lowerback
	{
		OFFSET 0.004439 0.124404 -0.038385
		CHANNELS 3 Zrotation Yrotation Xrotation
		JOINT upperback
		{
			OFFSET 0.004488 0.137956 0.026820
			CHANNELS 3 Zrotation Yrotation Xrotation
			JOINT chest
			{
				OFFSET -0.002265 0.056032 0.002855
				CHANNELS 3 Zrotation Yrotation Xrotation
				JOINT lowerneck
				{
					OFFSET -0.013390 0.211636 -0.033468
					CHANNELS 3 Zrotation Yrotation Xrotation
					JOINT upperneck
					{
						OFFSET 0.010113 0.088937 0.050410
						CHANNELS 3 Zrotation Yrotation Xrotation
						End Site
						{
							OFFSET 0.000000 0.000000 0.000000
						}
					}
				}
				JOINT lclavicle
				{
					OFFSET 0.071702 0.114000 -0.018898
					CHANNELS 3 Zrotation Yrotation Xrotation
					JOINT lshoulder
					{
						OFFSET 0.122921 0.045205 -0.019046
						CHANNELS 3 Zrotation Yrotation Xrotation
						JOINT lelbow
						{
							OFFSET 0.255332 -0.015649 -0.022946
							CHANNELS 3 Zrotation Yrotation Xrotation
							JOINT lwrist
							{
								OFFSET 0.265709 0.012698 -0.007375
								CHANNELS 3 Zrotation Yrotation Xrotation
								End Site
								{
									OFFSET 0.000000 0.000000 0.000000
								}
							}
						}
					}
				}
				JOINT rclavicle
				{
					OFFSET -0.082954 0.112472 -0.023707
					CHANNELS 3 Zrotation Yrotation Xrotation
					JOINT rshoulder
					{
						OFFSET -0.113228 0.046853 -0.008472
						CHANNELS 3 Zrotation Yrotation Xrotation
						JOINT relbow
						{
							OFFSET -0.260127 -0.014369 -0.031269
							CHANNELS 3 Zrotation Yrotation Xrotation
							JOINT rwrist
							{
								OFFSET -0.269108 0.006794 -0.006027
								CHANNELS 3 Zrotation Yrotation Xrotation
								End Site
								{
									OFFSET 0.000000 0.000000 0.000000
								}
							}
						}
					}
				}
			}
		}
	}
}
MOTION
Frames: 16
Frame Time: 0.033333
-1.045030 0.618583 1.146985 9.588535 -1.014217 90.093722 10.519071 4.680777 -3.628855 -5.719504 -2.752676 9.877940 -12.014158 10.934429 9.598539 0.000000 -0.000000 0.000000 -8.284214 -7.144160 -6.411279 1.077412 -2.708239 14.525069 12.329512 -10.899189 7.862736 0.000000 -0.000000 0.000000 0.984550 -0.108739 3.823731 0.351454 -1.674642 -1.408604 0.664842 0.559037 0.370015 -1.918075 13.270176 -8.614771 0.864273 11.368342 3.049176 -7.553853 7.584735 -5.430830 -15.328442 -3.749612 -14.229663 32.307695 -29.588457 -36.635751 13.602971 -10.639149 -16.071533 9.946858 -5.151524 -6.045349 17.653062 6.594189 -11.071124 -27.204746 13.252373 -39.371878 -4.714046 6.509805 -10.143184 
-1.043800 0.621432 1.150115 9.265011 -1.013616 89.121832 12.825865 5.247419 -3.154559 -5.789056 -4.810643 12.680025 -8.351279 11.597326 8.030415 0.000000 -0.000000 0.000000 -11.007284 -8.761930 -6.145200 1.165610 -1.632407 16.656461 9.076399 -13.547080 9.220823 0.000000 -0.000000 0.000000 1.158614 -0.359832 5.206854 0.194209 -1.354644 -3.107973 0.991204 0.493937 0.611332 -1.960349 11.776756 -7.094033 0.899015 12.606005 2.698762 -5.088484 7.802262 -6.213931 -7.274241 -5.575016 -17.574107 31.605582 -27.897529 -38.082405 13.966692 -11.286771 -16.017939 7.077935 -5.076867 -6.519650 9.144525 8.070550 -14.158980 -27.185793 14.631400 -39.388327 -6.307710 6.813094 -12.059971 
-1.041054 0.623980 1.142698 9.518455 -1.332501 88.533853 14.603134 5.813516 -3.592739 -6.198651 -7.520162 16.032994 -8.734144 11.780070 8.771757 0.000000 -0.000000 0.000000 -14.185605 -9.818779 -6.248097 1.257651 -0.268793 19.482636 8.057825 -14.399338 11.464496 0.000000 -0.000000 0.000000 1.320599 -0.531944 5.172446 0.233075 -1.620482 -3.257670 1.054362 -0.025029 0.471324 -2.786316 11.188089 -5.454714 1.178059 13.213724 2.649735 -2.122070 6.770532 -8.022355 -1.233002 -5.395473 -20.345317 32.386647 -28.233214 -40.182877 15.341831 -11.274877 -16.675272 2.796723 -3.518917 -7.418546 2.995643 8.961497 -17.708465 -29.173082 16.708789 -41.204850 -6.472803 6.997798 -11.025267 
-1.038643 0.625480 1.117361 9.786731 -1.569246 88.502492 17.100403 5.824579 -4.297961 -6.871437 -11.943472 18.385245 -10.561327 10.927341 10.967114 0.000000 -0.000000 0.000000 -17.446501 -9.832551 -6.595522 1.551988 2.177252 22.308552 8.421300 -14.765836 12.834034 0.000000 -0.000000 0.000000 1.294828 -0.580310 3.540192 0.205944 -2.054888 -2.684995 0.702731 0.403367 0.730444 -2.597628 10.584513 -3.579286 1.710871 12.359882 2.988772 4.267971 4.002572 -10.576945 3.341562 -5.488342 -22.436749 35.377258 -30.009459 -43.747230 18.529022 -10.892825 -17.909561 -2.633003 -1.040754 -11.174145 -3.235684 8.877939 -21.036850 -31.394595 20.439051 -44.155047 -5.273228 9.258063 -8.028565 
-1.037776 0.626226 1.095071 9.973996 -1.814998 88.075286 18.397811 5.099194 -3.975114 -6.886421 -13.883223 18.921823 -11.204154 10.714023 10.792017 0.000000 -0.000000 0.000000 -19.294117 -9.579434 -6.413327 1.736679 4.124589 24.047619 8.890536 -14.535274 13.634505 0.000000 -0.000000 0.000000 0.998888 -0.608025 3.794099 0.025130 -2.275640 -3.262067 0.594537 0.577120 0.844780 -1.988189 11.699550 -3.759670 2.236333 12.712026 3.364722 7.733185 3.009823 -11.714467 6.332081 -6.901259 -23.955782 37.912553 -31.712316 -46.353108 19.983974 -11.457647 -17.797401 -5.542303 -0.548447 -13.015215 -6.102779 10.785188 -22.406523 -34.043351 23.311446 -46.446941 -6.453938 9.253365 -8.083061 
-1.036693 0.628076 1.055852 10.061222 -2.173775 87.536534 20.137683 3.636076 -4.187488 -7.505077 -15.552772 21.058835 -11.924148 11.346613 8.005242 0.000000 -0.000000 0.000000 -21.112706 -8.390200 -6.430555 1.828675 7.315665 26.617220 9.400880 -14.694927 15.808051 0.000000 -0.000000 0.000000 0.368639 -0.420170 3.540279 0.174669 -2.512686 -2.987062 0.621578 0.487683 0.948349 -1.596734 11.741043 -2.845711 2.590933 12.390152 3.730195 11.195648 1.450286 -13.868147 10.889978 -8.567314 -26.065777 41.903138 -34.921476 -48.583283 20.501516 -13.098968 -16.910541 -9.199836 0.620408 -15.072414 -10.212797 13.587738 -24.872574 -38.894275 27.373782 -47.652116 -6.523429 10.092727 -6.573339 
-1.036353 0.630735 1.007448 9.918591 -2.329133 87.152052 21.340193 2.432269 -5.074613 -8.316586 -18.253480 25.341786 -12.714398 11.146060 4.061829 0.000000 -0.000000 0.000000 -21.935606 -6.406945 -7.354091 3.413015 11.925551 31.844082 11.531849 -12.295531 11.233508 0.000000 -0.000000 0.000000 -0.389879 -0.189380 3.797053 0.460745 -2.876619 -2.442878 0.698188 0.885991 -0.203029 -0.791800 11.280584 -0.707965 2.437281 11.587185 3.246168 15.073074 -1.253339 -15.809961 15.074158 -8.868554 -26.737299 47.913991 -38.932615 -53.197826 19.416562 -15.299695 -14.114605 -12.303991 3.645311 -16.506427 -15.437961 13.054800 -26.997346 -43.582059 33.289081 -51.916665 -5.978856 11.352216 -6.483137 
-1.037550 0.635659 0.950562 10.079606 -2.012142 86.154750 23.319021 3.184003 -6.640505 -11.704045 -20.425409 34.193264 -15.800402 8.395540 -10.796965 0.000000 -0.000000 0.000000 -21.840278 -5.655868 -8.844481 2.847868 11.540754 41.489148 15.316155 -12.064246 -5.256473 0.000000 -0.000000 0.000000 -1.039790 -0.151150 6.533683 0.851559 -3.380389 -4.064148 0.806853 1.269191 -0.479393 1.871857 13.448829 -0.863139 1.580312 9.165681 4.509258 20.070404 -3.263124 -17.779264 18.041477 -8.732973 -28.201817 54.185468 -44.295822 -55.916900 21.017646 -18.119130 -11.880128 -16.239547 5.689720 -19.152748 -18.035085 14.283893 -30.144594 -49.977277 39.342555 -54.002966 -5.225229 13.687567 -4.885449 
-1.038063 0.644174 0.891041 10.069796 -2.081382 84.586224 25.296723 6.012203 -9.278541 -15.926730 -20.295207 44.667711 -13.309003 5.210274 -24.532097 0.000000 -0.000000 0.000000 -22.940444 -7.109614 -9.679365 3.229852 12.665313 49.191296 15.375548 -10.656551 -20.134320 0.000000 -0.000000 0.000000 -1.636998 0.343177 10.740527 0.796399 -3.784846 -6.175426 0.871192 1.596613 0.127230 3.590200 14.911876 -2.728934 1.798999 6.846227 7.404756 23.819507 -5.505940 -19.732385 22.082310 -7.452574 -30.472618 63.085207 -49.967576 -60.908228 22.214257 -22.067303 -7.836448 -19.097660 6.916781 -21.833445 -21.001508 13.719736 -32.023439 -59.382682 46.758280 -59.092073 -5.634597 16.984481 -1.387676 
-1.039303 0.656773 0.834899 10.192670 -1.991246 81.692787 27.416248 8.495709 -11.938622 -19.609998 -19.291898 55.847406 -11.563094 2.923719 -33.338689 0.000000 -0.000000 0.000000 -23.780006 -8.055277 -11.398116 4.844742 14.117117 59.371231 14.750935 -11.416412 -29.815651 0.000000 -0.000000 0.000000 -2.530722 1.261593 17.182120 1.222818 -3.556604 -7.643320 1.828633 1.118059 0.874495 4.061569 15.222660 -6.302373 0.731996 4.831541 10.085022 25.330440 -6.325647 -21.586855 25.394998 -5.313075 -32.563796 80.579782 -54.595766 -74.536878 28.849804 -32.511247 -4.960693 -21.233851 7.297912 -25.163325 -24.663887 12.326247 -32.935217 -76.359811 52.690982 -71.481096 -10.646224 27.202382 5.990590 
-1.038864 0.661266 0.813165 10.193732 -1.920004 80.567073 28.029141 7.918944 -12.783454 -20.815864 -18.899689 59.860607 -10.992677 2.584047 -36.887345 0.000000 -0.000000 0.000000 -23.797118 -6.811128 -13.104082 5.328407 14.334883 65.112006 15.054443 -11.040861 -30.770381 0.000000 -0.000000 0.000000 -2.772867 0.688466 18.858958 1.307566 -4.290604 -7.468701 1.799648 1.509614 0.992306 4.513963 17.096040 -3.874089 0.234456 5.176089 7.130844 25.714986 -6.958450 -21.433683 26.264604 -2.917303 -33.365315 88.589734 -56.795886 -78.441904 38.265592 -40.581099 -7.541561 -21.628831 8.098879 -24.369685 -25.331697 11.694860 -34.695433 -82.114825 54.035411 -72.979849 -30.564359 32.070209 6.376004 
-1.037958 0.661146 0.812666 10.493144 -1.440624 80.213029 27.640632 8.028820 -12.229365 -20.036394 -19.981861 59.705969 -10.655467 3.619257 -38.364222 0.000000 -0.000000 0.000000 -23.192464 -6.570264 -12.657215 5.833278 15.117868 65.607364 15.174338 -11.328570 -30.209921 0.000000 -0.000000 0.000000 -2.427747 0.201821 18.667395 1.314315 -4.257115 -6.876643 2.136253 0.586845 0.964323 3.734103 14.736664 -1.973948 0.090661 7.143406 4.896974 24.529796 -5.846617 -21.539767 23.355129 -3.181864 -32.440327 85.661812 -58.448914 -73.970701 37.169765 -37.223527 -6.045509 -22.342524 7.957656 -24.083881 -22.924847 12.339187 -34.298104 -76.047137 52.902744 -68.371598 -28.302578 30.047294 5.768440 
-1.037544 0.658727 0.831039 10.824114 -1.223189 81.037477 26.816965 6.916476 -10.626253 -17.980896 -20.812846 54.693810 -10.588722 5.531010 -36.661336 0.000000 -0.000000 0.000000 -22.982405 -7.115391 -11.022469 5.020322 14.697525 60.774327 15.292246 -11.195204 -28.403927 0.000000 -0.000000 0.000000 -2.695272 0.551921 16.158512 1.022178 -3.943429 -6.856399 1.472052 1.905944 1.971474 6.464253 13.654778 -0.817973 0.814904 6.485518 4.916275 23.391050 -5.508316 -18.221651 19.957508 -6.257838 -31.132773 74.846216 -55.581694 -67.381001 34.946203 -30.781965 -12.117323 -19.484727 5.344127 -24.014044 -19.325484 12.328644 -31.377966 -65.492433 50.618486 -61.150762 -17.040129 26.090735 3.383007 
-1.036797 0.653801 0.871203 9.944660 -0.875856 82.755171 25.899406 5.597068 -8.467798 -15.214427 -21.300450 47.427934 -11.889236 6.956258 -28.972482 0.000000 -0.000000 0.000000 -21.914657 -6.991288 -9.493541 4.101992 14.461731 52.500649 15.075246 -12.170597 -21.668870 0.000000 -0.000000 0.000000 -1.896440 0.193949 12.937806 0.976461 -3.332539 -5.455958 1.563816 0.591820 1.243340 3.972694 12.464075 -0.909360 1.421502 8.744992 4.569515 18.675855 -2.223035 -17.864417 15.487464 -6.626914 -28.159611 65.196769 -56.091043 -60.566120 31.086066 -25.585546 -14.995308 -16.916297 4.638385 -21.635757 -16.701310 12.875210 -30.301504 -56.182635 45.821486 -54.790586 -13.069995 22.416775 4.702872 
-1.035155 0.648936 0.926759 8.887645 -0.962595 84.492725 23.814047 3.309085 -6.860981 -10.599297 -19.775017 39.595545 -14.213970 8.293824 -15.473685 0.000000 -0.000000 0.000000 -20.976212 -6.105290 -8.532059 0.871872 12.152131 43.136165 16.077877 -11.668587 -7.816676 0.000000 -0.000000 0.000000 -1.384640 0.171868 9.445037 0.564449 -2.373320 -3.889980 1.074762 0.453154 0.865674 3.762046 12.188809 -0.864650 2.045280 9.955733 3.947958 12.546618 0.435411 -15.757743 11.353502 -7.559525 -24.401987 60.055181 -53.839211 -58.296894 27.823612 -23.345143 -14.785340 -11.284524 2.479340 -18.959178 -14.393800 12.415196 -26.942949 -50.333992 42.413223 -52.309111 -13.341824 20.587058 4.131292 
-1.034081 0.643420 0.987317 8.036327 -1.044298 85.861115 21.351683 1.885707 -6.019149 -6.240649 -17.015455 31.476230 -16.039884 10.306030 2.576059 0.000000 -0.000000 0.000000 -19.483721 -5.420098 -7.969950 -1.857876 8.451714 33.848332 14.150050 -13.508775 8.706722 0.000000 -0.000000 0.000000 -0.713714 0.002186 5.933422 0.069430 -1.827567 -1.401917 0.480065 0.730752 0.389872 2.707583 10.438150 0.015240 2.714435 11.458665 2.272310 6.182516 2.341781 -12.942812 6.156211 -6.985655 -20.935705 57.838314 -51.302649 -57.631601 25.715253 -22.796094 -13.042499 -5.963130 0.831410 -15.759149 -9.769925 11.149822 -23.426614 -48.252559 39.447965 -52.233764 -12.989488 19.043085 1.682004 
